<svg id="visual" viewBox="0 0 2500 300" width="2500" height="300" xmlns="http://www.w3.org/2000/svg" xmlns:xlink="http://www.w3.org/1999/xlink" version="1.1"><rect x="0" y="0" width="2500" height="300" fill="#ffffff"></rect><path d="M0 271L18.2 272.3C36.3 273.7 72.7 276.3 108.8 277.2C145 278 181 277 217.2 276.7C253.3 276.3 289.7 276.7 326 277.2C362.3 277.7 398.7 278.3 434.8 277.8C471 277.3 507 275.7 543.2 275.5C579.3 275.3 615.7 276.7 652 277.3C688.3 278 724.7 278 761 278C797.3 278 833.7 278 869.8 278.2C906 278.3 942 278.7 978.2 279.2C1014.3 279.7 1050.7 280.3 1087 279.3C1123.3 278.3 1159.7 275.7 1195.8 274.7C1232 273.7 1268 274.3 1304.2 274.3C1340.3 274.3 1376.7 273.7 1413 274.7C1449.3 275.7 1485.7 278.3 1521.8 278.8C1558 279.3 1594 277.7 1630.2 277.3C1666.3 277 1702.7 278 1739 277.8C1775.3 277.7 1811.7 276.3 1848 275.8C1884.3 275.3 1920.7 275.7 1956.8 274.8C1993 274 2029 272 2065.2 272.2C2101.3 272.3 2137.7 274.7 2174 275.2C2210.3 275.7 2246.7 274.3 2282.8 273.7C2319 273 2355 273 2391.2 272.7C2427.3 272.3 2463.7 271.7 2481.8 271.3L2500 271L2500 301L2481.8 301C2463.7 301 2427.3 301 2391.2 301C2355 301 2319 301 2282.8 301C2246.7 301 2210.3 301 2174 301C2137.7 301 2101.3 301 2065.2 301C2029 301 1993 301 1956.8 301C1920.7 301 1884.3 301 1848 301C1811.7 301 1775.3 301 1739 301C1702.7 301 1666.3 301 1630.2 301C1594 301 1558 301 1521.8 301C1485.7 301 1449.3 301 1413 301C1376.7 301 1340.3 301 1304.2 301C1268 301 1232 301 1195.8 301C1159.7 301 1123.3 301 1087 301C1050.7 301 1014.3 301 978.2 301C942 301 906 301 869.8 301C833.7 301 797.3 301 761 301C724.7 301 688.3 301 652 301C615.7 301 579.3 301 543.2 301C507 301 471 301 434.8 301C398.7 301 362.3 301 326 301C289.7 301 253.3 301 217.2 301C181 301 145 301 108.8 301C72.7 301 36.3 301 18.2 301L0 301Z" fill="#ffffff"></path><path d="M0 279L18.2 279.5C36.3 280 72.7 281 108.8 281.8C145 282.7 181 283.3 217.2 283.2C253.3 283 289.7 282 326 280.5C362.3 279 398.7 277 434.8 276.3C471 275.7 507 276.3 543.2 276.7C579.3 277 615.7 277 652 276.7C688.3 276.3 724.7 275.7 761 275.8C797.3 276 833.7 277 869.8 277.8C906 278.7 942 279.3 978.2 278.7C1014.3 278 1050.7 276 1087 276.7C1123.3 277.3 1159.7 280.7 1195.8 280.8C1232 281 1268 278 1304.2 277C1340.3 276 1376.7 277 1413 276.7C1449.3 276.3 1485.7 274.7 1521.8 275.3C1558 276 1594 279 1630.2 280.5C1666.3 282 1702.7 282 1739 280.7C1775.3 279.3 1811.7 276.7 1848 275.3C1884.3 274 1920.7 274 1956.8 275.3C1993 276.7 2029 279.3 2065.2 280.3C2101.3 281.3 2137.7 280.7 2174 280.7C2210.3 280.7 2246.7 281.3 2282.8 281.3C2319 281.3 2355 280.7 2391.2 279.2C2427.3 277.7 2463.7 275.3 2481.8 274.2L2500 273L2500 301L2481.8 301C2463.7 301 2427.3 301 2391.2 301C2355 301 2319 301 2282.8 301C2246.7 301 2210.3 301 2174 301C2137.7 301 2101.3 301 2065.2 301C2029 301 1993 301 1956.8 301C1920.7 301 1884.3 301 1848 301C1811.7 301 1775.3 301 1739 301C1702.7 301 1666.3 301 1630.2 301C1594 301 1558 301 1521.8 301C1485.7 301 1449.3 301 1413 301C1376.7 301 1340.3 301 1304.2 301C1268 301 1232 301 1195.8 301C1159.7 301 1123.3 301 1087 301C1050.7 301 1014.3 301 978.2 301C942 301 906 301 869.8 301C833.7 301 797.3 301 761 301C724.7 301 688.3 301 652 301C615.7 301 579.3 301 543.2 301C507 301 471 301 434.8 301C398.7 301 362.3 301 326 301C289.7 301 253.3 301 217.2 301C181 301 145 301 108.8 301C72.7 301 36.3 301 18.2 301L0 301Z" fill="#f2f7fa"></path><path d="M0 282L18.2 282C36.3 282 72.7 282 108.8 282.3C145 282.7 181 283.3 217.2 284C253.3 284.7 289.7 285.3 326 284.2C362.3 283 398.7 280 434.8 279.2C471 278.3 507 279.7 543.2 280.8C579.3 282 615.7 283 652 282.7C688.3 282.3 724.7 280.7 761 280.8C797.3 281 833.7 283 869.8 283.3C906 283.7 942 282.3 978.2 281.7C1014.3 281 1050.7 281 1087 280.5C1123.3 280 1159.7 279 1195.8 278.7C1232 278.3 1268 278.7 1304.2 279.5C1340.3 280.3 1376.7 281.7 1413 282.2C1449.3 282.7 1485.7 282.3 1521.8 282.8C1558 283.3 1594 284.7 1630.2 285.2C1666.3 285.7 1702.7 285.3 1739 284.7C1775.3 284 1811.7 283 1848 282.3C1884.3 281.7 1920.7 281.3 1956.8 281.2C1993 281 2029 281 2065.2 281.8C2101.3 282.7 2137.7 284.3 2174 285C2210.3 285.7 2246.7 285.3 2282.8 285.2C2319 285 2355 285 2391.2 285.2C2427.3 285.3 2463.7 285.7 2481.8 285.8L2500 286L2500 301L2481.8 301C2463.7 301 2427.3 301 2391.2 301C2355 301 2319 301 2282.8 301C2246.7 301 2210.3 301 2174 301C2137.7 301 2101.3 301 2065.2 301C2029 301 1993 301 1956.8 301C1920.7 301 1884.3 301 1848 301C1811.7 301 1775.3 301 1739 301C1702.7 301 1666.3 301 1630.2 301C1594 301 1558 301 1521.8 301C1485.7 301 1449.3 301 1413 301C1376.7 301 1340.3 301 1304.2 301C1268 301 1232 301 1195.8 301C1159.7 301 1123.3 301 1087 301C1050.7 301 1014.3 301 978.2 301C942 301 906 301 869.8 301C833.7 301 797.3 301 761 301C724.7 301 688.3 301 652 301C615.7 301 579.3 301 543.2 301C507 301 471 301 434.8 301C398.7 301 362.3 301 326 301C289.7 301 253.3 301 217.2 301C181 301 145 301 108.8 301C72.7 301 36.3 301 18.2 301L0 301Z" fill="#e6eef4"></path><path d="M0 281L18.2 281.7C36.3 282.3 72.7 283.7 108.8 284.7C145 285.7 181 286.3 217.2 286.7C253.3 287 289.7 287 326 286.7C362.3 286.3 398.7 285.7 434.8 285.3C471 285 507 285 543.2 284.5C579.3 284 615.7 283 652 282.7C688.3 282.3 724.7 282.7 761 283.3C797.3 284 833.7 285 869.8 284.8C906 284.7 942 283.3 978.2 283.3C1014.3 283.3 1050.7 284.7 1087 285.5C1123.3 286.3 1159.7 286.7 1195.8 286.8C1232 287 1268 287 1304.2 286.7C1340.3 286.3 1376.7 285.7 1413 285.5C1449.3 285.3 1485.7 285.7 1521.8 286.5C1558 287.3 1594 288.7 1630.2 288.7C1666.3 288.7 1702.7 287.3 1739 286.3C1775.3 285.3 1811.7 284.7 1848 284C1884.3 283.3 1920.7 282.7 1956.8 283.3C1993 284 2029 286 2065.2 286.5C2101.3 287 2137.7 286 2174 285.2C2210.3 284.3 2246.7 283.7 2282.8 283.5C2319 283.3 2355 283.7 2391.2 284.3C2427.3 285 2463.7 286 2481.8 286.5L2500 287L2500 301L2481.8 301C2463.7 301 2427.3 301 2391.2 301C2355 301 2319 301 2282.8 301C2246.7 301 2210.3 301 2174 301C2137.7 301 2101.3 301 2065.2 301C2029 301 1993 301 1956.8 301C1920.7 301 1884.3 301 1848 301C1811.7 301 1775.3 301 1739 301C1702.7 301 1666.3 301 1630.2 301C1594 301 1558 301 1521.8 301C1485.7 301 1449.3 301 1413 301C1376.7 301 1340.3 301 1304.2 301C1268 301 1232 301 1195.8 301C1159.7 301 1123.3 301 1087 301C1050.7 301 1014.3 301 978.2 301C942 301 906 301 869.8 301C833.7 301 797.3 301 761 301C724.7 301 688.3 301 652 301C615.7 301 579.3 301 543.2 301C507 301 471 301 434.8 301C398.7 301 362.3 301 326 301C289.7 301 253.3 301 217.2 301C181 301 145 301 108.8 301C72.7 301 36.3 301 18.2 301L0 301Z" fill="#d9e6ef"></path><path d="M0 290L18.2 290C36.3 290 72.7 290 108.8 289C145 288 181 286 217.2 285.2C253.3 284.3 289.7 284.7 326 285.8C362.3 287 398.7 289 434.8 289.2C471 289.3 507 287.7 543.2 287.3C579.3 287 615.7 288 652 288.7C688.3 289.3 724.7 289.7 761 290.2C797.3 290.7 833.7 291.3 869.8 290.3C906 289.3 942 286.7 978.2 286.3C1014.3 286 1050.7 288 1087 288.7C1123.3 289.3 1159.7 288.7 1195.8 288.2C1232 287.7 1268 287.3 1304.2 287.7C1340.3 288 1376.7 289 1413 289.7C1449.3 290.3 1485.7 290.7 1521.8 290.2C1558 289.7 1594 288.3 1630.2 288.2C1666.3 288 1702.7 289 1739 289.5C1775.3 290 1811.7 290 1848 290.3C1884.3 290.7 1920.7 291.3 1956.8 291.2C1993 291 2029 290 2065.2 288.8C2101.3 287.7 2137.7 286.3 2174 285.7C2210.3 285 2246.7 285 2282.8 286.2C2319 287.3 2355 289.7 2391.2 290.2C2427.3 290.7 2463.7 289.3 2481.8 288.7L2500 288L2500 301L2481.8 301C2463.7 301 2427.3 301 2391.2 301C2355 301 2319 301 2282.8 301C2246.7 301 2210.3 301 2174 301C2137.7 301 2101.3 301 2065.2 301C2029 301 1993 301 1956.8 301C1920.7 301 1884.3 301 1848 301C1811.7 301 1775.3 301 1739 301C1702.7 301 1666.3 301 1630.2 301C1594 301 1558 301 1521.8 301C1485.7 301 1449.3 301 1413 301C1376.7 301 1340.3 301 1304.2 301C1268 301 1232 301 1195.8 301C1159.7 301 1123.3 301 1087 301C1050.7 301 1014.3 301 978.2 301C942 301 906 301 869.8 301C833.7 301 797.3 301 761 301C724.7 301 688.3 301 652 301C615.7 301 579.3 301 543.2 301C507 301 471 301 434.8 301C398.7 301 362.3 301 326 301C289.7 301 253.3 301 217.2 301C181 301 145 301 108.8 301C72.7 301 36.3 301 18.2 301L0 301Z" fill="#ccdeea"></path><path d="M0 293L18.2 293.3C36.3 293.7 72.7 294.3 108.8 293.8C145 293.3 181 291.7 217.2 291.2C253.3 290.7 289.7 291.3 326 291.7C362.3 292 398.7 292 434.8 292.3C471 292.7 507 293.3 543.2 292.7C579.3 292 615.7 290 652 290.2C688.3 290.3 724.7 292.7 761 293.8C797.3 295 833.7 295 869.8 294.8C906 294.7 942 294.3 978.2 294.3C1014.3 294.3 1050.7 294.7 1087 294.3C1123.3 294 1159.7 293 1195.8 292.8C1232 292.7 1268 293.3 1304.2 293C1340.3 292.7 1376.7 291.3 1413 290.7C1449.3 290 1485.7 290 1521.8 290.8C1558 291.7 1594 293.3 1630.2 293.7C1666.3 294 1702.7 293 1739 292.3C1775.3 291.7 1811.7 291.3 1848 291.3C1884.3 291.3 1920.7 291.7 1956.8 292.2C1993 292.7 2029 293.3 2065.2 293.2C2101.3 293 2137.7 292 2174 291.2C2210.3 290.3 2246.7 289.7 2282.8 289.7C2319 289.7 2355 290.3 2391.2 291.2C2427.3 292 2463.7 293 2481.8 293.5L2500 294L2500 301L2481.8 301C2463.7 301 2427.3 301 2391.2 301C2355 301 2319 301 2282.8 301C2246.7 301 2210.3 301 2174 301C2137.7 301 2101.3 301 2065.2 301C2029 301 1993 301 1956.8 301C1920.7 301 1884.3 301 1848 301C1811.7 301 1775.3 301 1739 301C1702.7 301 1666.3 301 1630.2 301C1594 301 1558 301 1521.8 301C1485.7 301 1449.3 301 1413 301C1376.7 301 1340.3 301 1304.2 301C1268 301 1232 301 1195.8 301C1159.7 301 1123.3 301 1087 301C1050.7 301 1014.3 301 978.2 301C942 301 906 301 869.8 301C833.7 301 797.3 301 761 301C724.7 301 688.3 301 652 301C615.7 301 579.3 301 543.2 301C507 301 471 301 434.8 301C398.7 301 362.3 301 326 301C289.7 301 253.3 301 217.2 301C181 301 145 301 108.8 301C72.7 301 36.3 301 18.2 301L0 301Z" fill="#bfd5e4"></path><path d="M0 295L18.2 295.7C36.3 296.3 72.7 297.7 108.8 297.7C145 297.7 181 296.3 217.2 295.8C253.3 295.3 289.7 295.7 326 296.3C362.3 297 398.7 298 434.8 297.3C471 296.7 507 294.3 543.2 293.3C579.3 292.3 615.7 292.7 652 293.5C688.3 294.3 724.7 295.7 761 296.7C797.3 297.7 833.7 298.3 869.8 297.7C906 297 942 295 978.2 294.8C1014.3 294.7 1050.7 296.3 1087 296.5C1123.3 296.7 1159.7 295.3 1195.8 294.7C1232 294 1268 294 1304.2 294.2C1340.3 294.3 1376.7 294.7 1413 295.3C1449.3 296 1485.7 297 1521.8 297C1558 297 1594 296 1630.2 295.3C1666.3 294.7 1702.7 294.3 1739 294.7C1775.3 295 1811.7 296 1848 296.3C1884.3 296.7 1920.7 296.3 1956.8 296.5C1993 296.7 2029 297.3 2065.2 297.3C2101.3 297.3 2137.7 296.7 2174 296.5C2210.3 296.3 2246.7 296.7 2282.8 296.5C2319 296.3 2355 295.7 2391.2 295.7C2427.3 295.7 2463.7 296.3 2481.8 296.7L2500 297L2500 301L2481.8 301C2463.7 301 2427.3 301 2391.2 301C2355 301 2319 301 2282.8 301C2246.7 301 2210.3 301 2174 301C2137.7 301 2101.3 301 2065.2 301C2029 301 1993 301 1956.8 301C1920.7 301 1884.3 301 1848 301C1811.7 301 1775.3 301 1739 301C1702.7 301 1666.3 301 1630.2 301C1594 301 1558 301 1521.8 301C1485.7 301 1449.3 301 1413 301C1376.7 301 1340.3 301 1304.2 301C1268 301 1232 301 1195.8 301C1159.7 301 1123.3 301 1087 301C1050.7 301 1014.3 301 978.2 301C942 301 906 301 869.8 301C833.7 301 797.3 301 761 301C724.7 301 688.3 301 652 301C615.7 301 579.3 301 543.2 301C507 301 471 301 434.8 301C398.7 301 362.3 301 326 301C289.7 301 253.3 301 217.2 301C181 301 145 301 108.8 301C72.7 301 36.3 301 18.2 301L0 301Z" fill="#b2cddf"></path></svg>