<svg id="visual" viewBox="0 0 2500 1080" width="2500" height="1080" xmlns="http://www.w3.org/2000/svg" xmlns:xlink="http://www.w3.org/1999/xlink" version="1.1"><path d="M0 879L18.2 897C36.3 915 72.7 951 108.8 950.2C145 949.3 181 911.7 217.2 904.8C253.3 898 289.7 922 326 933.3C362.3 944.7 398.7 943.3 434.8 931.5C471 919.7 507 897.3 543.2 897C579.3 896.7 615.7 918.3 652 918.2C688.3 918 724.7 896 761 907C797.3 918 833.7 962 869.8 970.8C906 979.7 942 953.3 978.2 931.8C1014.3 910.3 1050.7 893.7 1087 883.3C1123.3 873 1159.7 869 1195.8 883.5C1232 898 1268 931 1304.2 941.8C1340.3 952.7 1376.7 941.3 1413 929.2C1449.3 917 1485.7 904 1521.8 906.3C1558 908.7 1594 926.3 1630.2 933.5C1666.3 940.7 1702.7 937.3 1739 935.2C1775.3 933 1811.7 932 1848 928.5C1884.3 925 1920.7 919 1956.8 912.2C1993 905.3 2029 897.7 2065.2 907.3C2101.3 917 2137.7 944 2174 964.3C2210.3 984.7 2246.7 998.3 2282.8 1003.2C2319 1008 2355 1004 2391.2 994.3C2427.3 984.7 2463.7 969.3 2481.8 961.7L2500 954L2500 1081L2481.8 1081C2463.7 1081 2427.3 1081 2391.2 1081C2355 1081 2319 1081 2282.8 1081C2246.7 1081 2210.3 1081 2174 1081C2137.7 1081 2101.3 1081 2065.2 1081C2029 1081 1993 1081 1956.8 1081C1920.7 1081 1884.3 1081 1848 1081C1811.7 1081 1775.3 1081 1739 1081C1702.7 1081 1666.3 1081 1630.2 1081C1594 1081 1558 1081 1521.8 1081C1485.7 1081 1449.3 1081 1413 1081C1376.7 1081 1340.3 1081 1304.2 1081C1268 1081 1232 1081 1195.8 1081C1159.7 1081 1123.3 1081 1087 1081C1050.7 1081 1014.3 1081 978.2 1081C942 1081 906 1081 869.8 1081C833.7 1081 797.3 1081 761 1081C724.7 1081 688.3 1081 652 1081C615.7 1081 579.3 1081 543.2 1081C507 1081 471 1081 434.8 1081C398.7 1081 362.3 1081 326 1081C289.7 1081 253.3 1081 217.2 1081C181 1081 145 1081 108.8 1081C72.7 1081 36.3 1081 18.2 1081L0 1081Z" fill="#000e16"></path><path d="M0 972L18.2 967.7C36.3 963.3 72.7 954.7 108.8 966.2C145 977.7 181 1009.3 217.2 1008.7C253.3 1008 289.7 975 326 968.5C362.3 962 398.7 982 434.8 992.5C471 1003 507 1004 543.2 998.2C579.3 992.3 615.7 979.7 652 982.7C688.3 985.7 724.7 1004.3 761 1010.8C797.3 1017.3 833.7 1011.7 869.8 1000C906 988.3 942 970.7 978.2 962C1014.3 953.3 1050.7 953.7 1087 958.3C1123.3 963 1159.7 972 1195.8 986.2C1232 1000.3 1268 1019.7 1304.2 1016.3C1340.3 1013 1376.7 987 1413 982.2C1449.3 977.3 1485.7 993.7 1521.8 993.2C1558 992.7 1594 975.3 1630.2 977.3C1666.3 979.3 1702.7 1000.7 1739 1002.3C1775.3 1004 1811.7 986 1848 979.3C1884.3 972.7 1920.7 977.3 1956.8 973.2C1993 969 2029 956 2065.2 950.2C2101.3 944.3 2137.7 945.7 2174 953.3C2210.3 961 2246.7 975 2282.8 988.2C2319 1001.3 2355 1013.7 2391.2 1021.5C2427.3 1029.3 2463.7 1032.7 2481.8 1034.3L2500 1036L2500 1081L2481.8 1081C2463.7 1081 2427.3 1081 2391.2 1081C2355 1081 2319 1081 2282.8 1081C2246.7 1081 2210.3 1081 2174 1081C2137.7 1081 2101.3 1081 2065.2 1081C2029 1081 1993 1081 1956.8 1081C1920.7 1081 1884.3 1081 1848 1081C1811.7 1081 1775.3 1081 1739 1081C1702.7 1081 1666.3 1081 1630.2 1081C1594 1081 1558 1081 1521.8 1081C1485.7 1081 1449.3 1081 1413 1081C1376.7 1081 1340.3 1081 1304.2 1081C1268 1081 1232 1081 1195.8 1081C1159.7 1081 1123.3 1081 1087 1081C1050.7 1081 1014.3 1081 978.2 1081C942 1081 906 1081 869.8 1081C833.7 1081 797.3 1081 761 1081C724.7 1081 688.3 1081 652 1081C615.7 1081 579.3 1081 543.2 1081C507 1081 471 1081 434.8 1081C398.7 1081 362.3 1081 326 1081C289.7 1081 253.3 1081 217.2 1081C181 1081 145 1081 108.8 1081C72.7 1081 36.3 1081 18.2 1081L0 1081Z" fill="#000d14"></path><path d="M0 989L18.2 988.8C36.3 988.7 72.7 988.3 108.8 987.3C145 986.3 181 984.7 217.2 986.2C253.3 987.7 289.7 992.3 326 998.2C362.3 1004 398.7 1011 434.8 1007.8C471 1004.7 507 991.3 543.2 991.5C579.3 991.7 615.7 1005.3 652 1009C688.3 1012.7 724.7 1006.3 761 1012.5C797.3 1018.7 833.7 1037.3 869.8 1036.3C906 1035.3 942 1014.7 978.2 1009.3C1014.3 1004 1050.7 1014 1087 1016.5C1123.3 1019 1159.7 1014 1195.8 1021.8C1232 1029.7 1268 1050.3 1304.2 1045.7C1340.3 1041 1376.7 1011 1413 1001.7C1449.3 992.3 1485.7 1003.7 1521.8 1005C1558 1006.3 1594 997.7 1630.2 999C1666.3 1000.3 1702.7 1011.7 1739 1012.2C1775.3 1012.7 1811.7 1002.3 1848 1005.7C1884.3 1009 1920.7 1026 1956.8 1033.3C1993 1040.7 2029 1038.3 2065.2 1027.8C2101.3 1017.3 2137.7 998.7 2174 995.2C2210.3 991.7 2246.7 1003.3 2282.8 1007.7C2319 1012 2355 1009 2391.2 1003C2427.3 997 2463.7 988 2481.8 983.5L2500 979L2500 1081L2481.8 1081C2463.7 1081 2427.3 1081 2391.2 1081C2355 1081 2319 1081 2282.8 1081C2246.7 1081 2210.3 1081 2174 1081C2137.7 1081 2101.3 1081 2065.2 1081C2029 1081 1993 1081 1956.8 1081C1920.7 1081 1884.3 1081 1848 1081C1811.7 1081 1775.3 1081 1739 1081C1702.7 1081 1666.3 1081 1630.2 1081C1594 1081 1558 1081 1521.8 1081C1485.7 1081 1449.3 1081 1413 1081C1376.7 1081 1340.3 1081 1304.2 1081C1268 1081 1232 1081 1195.8 1081C1159.7 1081 1123.3 1081 1087 1081C1050.7 1081 1014.3 1081 978.2 1081C942 1081 906 1081 869.8 1081C833.7 1081 797.3 1081 761 1081C724.7 1081 688.3 1081 652 1081C615.7 1081 579.3 1081 543.2 1081C507 1081 471 1081 434.8 1081C398.7 1081 362.3 1081 326 1081C289.7 1081 253.3 1081 217.2 1081C181 1081 145 1081 108.8 1081C72.7 1081 36.3 1081 18.2 1081L0 1081Z" fill="#000b11"></path></svg>